<svg aria-hidden="true" style="position: absolute; width: 0; height: 0; overflow: hidden;" version="1.1" xmlns="http://www.w3.org/2000/svg" xmlns:xlink="http://www.w3.org/1999/xlink">
<defs>
<symbol id="modal-menu-open" viewBox="0 0 46 32">
<path fill="#f00" style="fill: var(--color1, #f00)" d="M7.354 7.385h35.282c1.586 0 2.872 1.286 2.872 2.872s-1.286 2.872-2.872 2.872h-35.282c-1.586 0-2.872-1.286-2.872-2.872s1.286-2.872 2.872-2.872z"></path>
<path fill="#f00" style="fill: var(--color1, #f00)" d="M6.944 18.051h27.897c1.359 0 2.462 1.102 2.462 2.462s-1.102 2.462-2.462 2.462h-27.897c-1.359 0-2.462-1.102-2.462-2.462s1.102-2.462 2.462-2.462z"></path>
<path fill="#f00" style="fill: var(--color1, #f00)" d="M4.483 29.949c0-1.133 0.918-2.051 2.051-2.051h22.154c1.133 0 2.051 0.918 2.051 2.051s-0.918 2.051-2.051 2.051h-22.154c-1.133 0-2.051-0.918-2.051-2.051z"></path>
</symbol>
<symbol id="arrow" viewBox="0 0 18 32">
<path fill="#fff" style="fill: var(--color2, #fff)" d="M16.996 16.892c0.781-0.781 0.781-2.047 0-2.828l-12.728-12.728c-0.781-0.781-2.047-0.781-2.828 0s-0.781 2.047 0 2.828l11.314 11.314-11.314 11.314c-0.781 0.781-0.781 2.047 0 2.828s2.047 0.781 2.828 0l12.728-12.728zM13.565 17.478h2.016v-4h-2.016v4z"></path>
</symbol>
</defs>
</svg>
